<svg width="90" height="41" viewBox="0 0 90 41" fill="none" xmlns="http://www.w3.org/2000/svg">
<path d="M0.761719 20.528C0.761719 9.58524 9.6326 0.714355 20.5754 0.714355C31.5182 0.714355 40.389 9.58524 40.389 20.528C40.389 31.4708 31.5182 40.3417 20.5754 40.3417C9.6326 40.3417 0.761719 31.4708 0.761719 20.528Z" fill="white"/>
<path fill-rule="evenodd" clip-rule="evenodd" d="M24.9241 8.63977C25.1315 10.0487 24.558 11.429 23.8015 12.4056C22.9921 13.4531 21.5971 14.2632 20.2454 14.221C19.9986 12.872 20.6304 11.4822 21.3991 10.5479C22.2424 9.51678 23.6876 8.7257 24.9241 8.63977ZM28.9845 28.4713C29.6814 27.4033 29.9417 26.8646 30.4826 25.6589C26.5482 24.1626 25.9178 18.5692 29.8115 16.4223C28.6239 14.9329 26.9549 14.0696 25.3795 14.0696C24.2444 14.0696 23.4666 14.3658 22.7596 14.6351C22.1703 14.8595 21.6302 15.0652 20.9733 15.0652C20.2634 15.0652 19.6347 14.8398 18.9765 14.6038C18.2531 14.3445 17.4941 14.0723 16.5521 14.0723C14.7842 14.0723 12.9024 15.1525 11.7094 16.9993C10.0323 19.6003 10.3183 24.49 13.038 28.6554C14.0101 30.1462 15.3089 31.8211 17.0077 31.8361C17.7126 31.8431 18.1816 31.6327 18.6892 31.405C19.2702 31.1445 19.9016 30.8612 20.995 30.8554C22.0948 30.8488 22.7163 31.1355 23.2895 31.3999C23.7841 31.628 24.2427 31.8396 24.9416 31.832C26.6417 31.8183 28.0124 29.962 28.9845 28.4713Z" fill="#0B0B0A"/>
<path d="M54.8805 12.9166C56.4895 12.9166 57.8248 13.4557 58.8864 14.5338C59.9645 15.5954 60.5036 16.9224 60.5036 18.5148C60.5036 20.0906 59.9645 21.4176 58.8864 22.4958C57.8248 23.5739 56.4895 24.113 54.8805 24.113H50.8747V30.3333H48.5608V12.9166H54.8805ZM54.8805 21.9484C55.8426 21.9484 56.6388 21.6249 57.2691 20.978C57.8994 20.3145 58.2146 19.4934 58.2146 18.5148C58.2146 17.5196 57.8994 16.6985 57.2691 16.0516C56.6388 15.4047 55.8426 15.0812 54.8805 15.0812H50.8747V21.9484H54.8805ZM72.6277 17.8928H74.7924V30.3333H72.6277V28.1935C71.5496 29.8356 69.9821 30.6567 67.9252 30.6567C66.1836 30.6567 64.699 30.0264 63.4715 28.7658C62.2441 27.4885 61.6303 25.9376 61.6303 24.113C61.6303 22.2884 62.2441 20.7458 63.4715 19.4852C64.699 18.2079 66.1836 17.5693 67.9252 17.5693C69.9821 17.5693 71.5496 18.3904 72.6277 20.0325V17.8928ZM68.1989 28.5667C69.4596 28.5667 70.5128 28.1437 71.3588 27.2978C72.2048 26.4352 72.6277 25.3736 72.6277 24.113C72.6277 22.8524 72.2048 21.7991 71.3588 20.9531C70.5128 20.0906 69.4596 19.6593 68.1989 19.6593C66.9549 19.6593 65.9099 20.0906 65.0639 20.9531C64.218 21.7991 63.795 22.8524 63.795 24.113C63.795 25.3736 64.218 26.4352 65.0639 27.2978C65.9099 28.1437 66.9549 28.5667 68.1989 28.5667ZM87.0174 17.8928H89.3313L84.2556 31.1046C83.7248 32.5145 82.9783 33.5844 82.0163 34.3142C81.0708 35.0606 79.976 35.3924 78.732 35.3094V33.2941C80.258 33.4102 81.3777 32.5642 82.0909 30.7562L82.3149 30.2835L76.8908 17.8928H79.2047L83.4345 27.6461L87.0174 17.8928Z" fill="white"/>
</svg>
