<svg width="40" height="40" viewBox="0 0 40 40" fill="none" xmlns="http://www.w3.org/2000/svg">
<rect x="0.714286" y="0.714286" width="38.5714" height="38.5714" rx="19.2857" stroke="#82B5D1" stroke-width="1.42857"/>
<path d="M21.2386 17.6812V18.3955H21.9529H24.6281L24.2831 20.588H21.9529H21.2386V21.3023V29.3465H18.7177V21.3023V20.588H18.0034H15.5147V18.3955H18.0034H18.7177V17.6812V14.9201C18.7177 13.4943 19.1428 12.4742 19.811 11.8109C20.4799 11.1468 21.475 10.7581 22.775 10.7573C23.4907 10.7662 24.205 10.8157 24.9146 10.9056V12.6555H24.0103C23.0728 12.6555 22.3405 12.9511 21.8553 13.5082C21.3862 14.0469 21.2386 14.727 21.2386 15.3275V17.6812Z" stroke="#82B5D1" stroke-width="1.42857"/>
</svg>
