<svg width="33" height="33" viewBox="0 0 33 33" fill="none" xmlns="http://www.w3.org/2000/svg">
<path d="M10.549 10.2688H23.9167C25.3315 10.2688 26.3785 11.6174 26.0603 13.0298L24.8757 18.2895C24.6454 19.3123 23.7565 20.0368 22.7321 20.0368H14.4991C13.4746 20.0368 12.5858 19.3123 12.3554 18.2895L10.549 10.2688ZM10.549 10.2688L10.3171 9.55603C10.0176 8.63557 9.17692 8.01471 8.22998 8.01471H6.88232M22.9117 12.8235H20.5073" stroke="#6891A7" stroke-width="1.60294" stroke-linecap="round"/>
<path d="M15.7602 22.8991C15.7602 23.5315 15.2634 24.0441 14.6505 24.0441C14.0376 24.0441 13.5408 23.5315 13.5408 22.8991C13.5408 22.2668 14.0376 21.7542 14.6505 21.7542C15.2634 21.7542 15.7602 22.2668 15.7602 22.8991Z" fill="#6891A7"/>
<path d="M23.1584 22.8991C23.1584 23.5315 22.6616 24.0441 22.0487 24.0441C21.4358 24.0441 20.939 23.5315 20.939 22.8991C20.939 22.2668 21.4358 21.7542 22.0487 21.7542C22.6616 21.7542 23.1584 22.2668 23.1584 22.8991Z" fill="#6891A7"/>
</svg>
