<svg width="53" height="53" viewBox="0 0 53 53" fill="none" xmlns="http://www.w3.org/2000/svg">
<path d="M10.8623 22.7143C10.8096 23.746 10.8096 25.013 10.8096 26.6429C10.8096 30.3039 10.8096 32.1343 11.4077 33.5783C12.2051 35.5035 13.7347 37.0331 15.6599 37.8305C17.1038 38.4286 18.9343 38.4286 22.5953 38.4286H30.4524C34.1134 38.4286 35.9439 38.4286 37.3878 37.8305C39.313 37.0331 40.8426 35.5035 41.6401 33.5783C42.2381 32.1343 42.2381 30.3039 42.2381 26.6429C42.2381 25.013 42.2381 23.746 42.1854 22.7143M10.8623 22.7143C10.9281 21.4287 11.0758 20.5086 11.4077 19.7075C12.2051 17.7823 13.7347 16.2527 15.6599 15.4553C17.1038 14.8572 18.9343 14.8572 22.5953 14.8572H30.4524C34.1134 14.8572 35.9439 14.8572 37.3878 15.4553C39.313 16.2527 40.8426 17.7823 41.6401 19.7075C41.9719 20.5086 42.1196 21.4287 42.1854 22.7143M10.8623 22.7143H42.1854M34.381 27.9524H37" stroke="#344854" stroke-width="2.61905" stroke-linecap="round"/>
</svg>
