<svg width="35" height="35" viewBox="0 0 35 35" fill="none" xmlns="http://www.w3.org/2000/svg">
<path d="M7 11.4056C7 10.0094 7 9.31132 7.23415 8.76308C7.52752 8.0762 8.07338 7.52891 8.75847 7.23477C9.30526 7 10.0015 7 11.3941 7C12.7866 7 13.4829 7 14.0297 7.23477C14.7148 7.52891 15.2606 8.0762 15.554 8.76308C15.7881 9.31132 15.7881 10.0094 15.7881 11.4056C15.7881 12.8018 15.7881 13.4999 15.554 14.0481C15.2606 14.735 14.7148 15.2823 14.0297 15.5764C13.4829 15.8112 12.7866 15.8112 11.3941 15.8112C10.0015 15.8112 9.30526 15.8112 8.75847 15.5764C8.07338 15.2823 7.52752 14.735 7.23415 14.0481C7 13.4999 7 12.8018 7 11.4056Z" stroke="#344854" stroke-width="2"/>
<path d="M19.2119 11.4056C19.2119 10.0094 19.2119 9.31132 19.446 8.76308C19.7394 8.0762 20.2852 7.52891 20.9703 7.23477C21.5171 7 22.2134 7 23.6059 7C24.9985 7 25.6947 7 26.2415 7.23477C26.9266 7.52891 27.4725 8.0762 27.7658 8.76308C28 9.31132 28 10.0094 28 11.4056C28 12.8018 28 13.4999 27.7658 14.0481C27.4725 14.735 26.9266 15.2823 26.2415 15.5764C25.6947 15.8112 24.9985 15.8112 23.6059 15.8112C22.2134 15.8112 21.5171 15.8112 20.9703 15.5764C20.2852 15.2823 19.7394 14.735 19.446 14.0481C19.2119 13.4999 19.2119 12.8018 19.2119 11.4056Z" stroke="#344854" stroke-width="2"/>
<path d="M19.2119 23.5944C19.2119 22.1982 19.2119 21.5001 19.446 20.9519C19.7394 20.265 20.2852 19.7177 20.9703 19.4235C21.5171 19.1888 22.2134 19.1888 23.6059 19.1888C24.9985 19.1888 25.6947 19.1888 26.2415 19.4235C26.9266 19.7177 27.4725 20.265 27.7658 20.9519C28 21.5001 28 22.1982 28 23.5944C28 24.9906 28 25.6887 27.7658 26.2369C27.4725 26.9238 26.9266 27.4711 26.2415 27.7652C25.6947 28 24.9985 28 23.6059 28C22.2134 28 21.5171 28 20.9703 27.7652C20.2852 27.4711 19.7394 26.9238 19.446 26.2369C19.2119 25.6887 19.2119 24.9906 19.2119 23.5944Z" stroke="#344854" stroke-width="2"/>
<path d="M7 23.5944C7 22.1982 7 21.5001 7.23415 20.9519C7.52752 20.265 8.07338 19.7177 8.75847 19.4235C9.30526 19.1888 10.0015 19.1888 11.3941 19.1888C12.7866 19.1888 13.4829 19.1888 14.0297 19.4235C14.7148 19.7177 15.2606 20.265 15.554 20.9519C15.7881 21.5001 15.7881 22.1982 15.7881 23.5944C15.7881 24.9906 15.7881 25.6887 15.554 26.2369C15.2606 26.9238 14.7148 27.4711 14.0297 27.7652C13.4829 28 12.7866 28 11.3941 28C10.0015 28 9.30526 28 8.75847 27.7652C8.07338 27.4711 7.52752 26.9238 7.23415 26.2369C7 25.6887 7 24.9906 7 23.5944Z" stroke="#344854" stroke-width="2"/>
</svg>
