<svg width="64px" height="64px" viewBox="0 0 40.00 40.00" xmlns="http://www.w3.org/2000/svg" fill="#000000" stroke="#000000" stroke-width="0.0004"><g id="SVGRepo_bgCarrier" stroke-width="0" transform="translate(7.800000000000001,7.800000000000001), scale(0.61)"><path transform="translate(0, 0), scale(2.5)" fill="#6891A7" d="M9.166.33a2.25 2.25 0 00-2.332 0l-5.25 3.182A2.25 2.25 0 00.5 5.436v5.128a2.25 2.25 0 001.084 1.924l5.25 3.182a2.25 2.25 0 002.332 0l5.25-3.182a2.25 2.25 0 001.084-1.924V5.436a2.25 2.25 0 00-1.084-1.924L9.166.33z" strokewidth="0"></path></g><g id="SVGRepo_tracerCarrier" stroke-linecap="round" stroke-linejoin="round"></g><g id="SVGRepo_iconCarrier"><path fill="#000000" fill-rule="nonzero" d="M20 12l6 5.656-1.5 1.414-3.44-3.242V28h-2.12V15.828L15.5 19.07 14 17.656z"></path></g></svg>