<svg width="40" height="40" viewBox="0 0 40 40" fill="none" xmlns="http://www.w3.org/2000/svg">
<rect x="0.714286" y="0.714286" width="38.5714" height="38.5714" rx="19.2857" stroke="#82B5D1" stroke-width="1.42857"/>
<path d="M11.3938 19.9547L11.3938 19.9548L11.4055 19.9499L11.1282 19.2916C11.4055 19.9499 11.4055 19.9498 11.4055 19.9498L11.4058 19.9497L11.4069 19.9492L11.4114 19.9474L11.4289 19.94L11.4976 19.9111L11.7607 19.8002L12.7213 19.3954C13.5284 19.0551 14.6339 18.5889 15.8277 18.085C18.2146 17.0774 20.9563 15.9181 22.3693 15.3139L22.3693 15.314L22.3795 15.3094C22.9131 15.0713 24.094 14.5673 25.1486 14.1199C25.6744 13.8968 26.1665 13.6888 26.5271 13.5365L26.9572 13.355L27.0753 13.3053L27.105 13.2927C27.1051 13.2927 27.1052 13.2926 27.1054 13.2926C27.1113 13.2904 27.122 13.2866 27.1369 13.2816C27.1676 13.2714 27.2137 13.2573 27.2691 13.244C27.3888 13.2152 27.511 13.1999 27.605 13.2082C27.6325 13.2107 27.6506 13.2143 27.6617 13.2174C27.6743 13.2513 27.6966 13.3424 27.6801 13.5339L27.68 13.5338L27.6792 13.5454C27.6473 14.0031 27.45 15.3167 27.2005 16.9781C27.1015 17.6373 26.9943 18.3512 26.8859 19.0881C26.6037 20.8978 26.3099 22.7915 26.0865 24.2331L25.8146 25.99L25.7376 26.488L25.7172 26.6199L25.7119 26.6538L25.7106 26.6624L25.7103 26.6645L25.7102 26.6651L25.7102 26.6652L26.4161 26.7743L25.7102 26.6652L25.7064 26.6895L25.7047 26.71L25.7047 26.7101L25.7026 26.7272C25.7002 26.7451 25.6957 26.7743 25.6883 26.8114C25.6732 26.8877 25.6477 26.9861 25.608 27.0831C25.5196 27.2992 25.4255 27.3663 25.3547 27.3834C25.3079 27.3947 25.2004 27.3999 25.0168 27.3559C24.8408 27.3138 24.6423 27.2382 24.4404 27.1426C24.0288 26.9476 23.6914 26.7124 23.6238 26.6568L23.6149 26.6496L23.6059 26.6426C23.5448 26.5957 23.3322 26.4531 23.0615 26.2717C23.0154 26.2408 22.9676 26.2088 22.9185 26.1759C22.5604 25.9356 22.0895 25.6189 21.587 25.2741C20.5706 24.5767 19.4656 23.7917 18.8896 23.2918C18.8437 23.2513 18.8048 23.2078 18.7777 23.167C18.7507 23.1261 18.7444 23.1013 18.743 23.0925C18.743 23.0924 18.7429 23.0922 18.7429 23.0921C18.7424 23.0891 18.7404 23.0786 18.7526 23.0499C18.768 23.0135 18.8139 22.9326 18.9436 22.8161L18.9498 22.8106L18.9558 22.8049C20.655 21.2065 22.6853 19.2198 23.9171 17.9556C24.1056 17.7622 24.2879 17.513 24.4162 17.2679C24.4802 17.1455 24.543 17.0011 24.5805 16.8483C24.6133 16.7146 24.6535 16.4699 24.5506 16.2136C24.4191 15.8857 24.1302 15.7135 23.843 15.6766C23.6075 15.6463 23.3819 15.7036 23.2073 15.7653C22.8442 15.8936 22.3741 16.1627 21.7737 16.5817L21.7737 16.5817L21.7696 16.5846C20.1037 17.7645 18.4487 18.9089 17.2098 19.7586C16.5905 20.1833 16.0754 20.5342 15.7152 20.7789C15.5352 20.9012 15.3939 20.9969 15.2976 21.062L15.1879 21.1362L15.1738 21.1457C15.1663 21.1495 15.1537 21.1554 15.1363 21.1626C15.0869 21.1832 14.9975 21.2146 14.8693 21.238C14.6169 21.2839 14.192 21.3026 13.5963 21.1192L13.5962 21.1192C12.8998 20.9048 12.1425 20.6538 11.5572 20.4556C11.277 20.3607 11.0372 20.2782 10.8636 20.2181C10.9721 20.1468 11.1399 20.0563 11.3938 19.9547ZM10.6892 20.1576C10.6891 20.1575 10.689 20.1575 10.689 20.1575C10.689 20.1574 10.6889 20.1574 10.689 20.1574C10.689 20.1574 10.6891 20.1574 10.6892 20.1576ZM27.6769 13.2232C27.6768 13.2233 27.6755 13.2228 27.6734 13.2214C27.676 13.2224 27.677 13.2231 27.6769 13.2232ZM27.6555 13.2033C27.6545 13.2018 27.6541 13.2011 27.6541 13.201C27.6542 13.201 27.6547 13.2017 27.6555 13.2033ZM23.7429 17.0946C23.7429 17.0946 23.7423 17.0948 23.7411 17.0949L23.7429 17.0946Z" stroke="#82B5D1" stroke-width="1.42857"/>
</svg>
