<svg width="42" height="42" viewBox="0 0 42 42" fill="none" xmlns="http://www.w3.org/2000/svg">
<path d="M1 21C1 9.9543 9.9543 1 21 1C32.0457 1 41 9.9543 41 21C41 32.0457 32.0457 41 21 41C9.9543 41 1 32.0457 1 21Z" stroke="#82B5D1" stroke-width="1.42857"/>
<path d="M31.2208 16.0609C30.9755 15.1183 30.2526 14.3762 29.3346 14.1243C27.6711 13.6665 21 13.6665 21 13.6665C21 13.6665 14.3288 13.6665 12.6652 14.1243C11.7472 14.3762 11.0243 15.1183 10.779 16.0609C10.3333 17.769 10.3333 21.3332 10.3333 21.3332C10.3333 21.3332 10.3333 24.8972 10.779 26.6055C11.0243 27.548 11.7472 28.2902 12.6652 28.5422C14.3288 28.9998 21 28.9998 21 28.9998C21 28.9998 27.6711 28.9998 29.3346 28.5422C30.2526 28.2902 30.9755 27.548 31.2208 26.6055C31.6666 24.8972 31.6666 21.3332 31.6666 21.3332C31.6666 21.3332 31.6666 17.769 31.2208 16.0609" stroke="#82B5D1" stroke-width="1.42857"/>
<path d="M18.9999 25.0002V18.3335L24.3333 21.667L18.9999 25.0002Z" stroke="#82B5D1" stroke-width="1.42857"/>
</svg>
