<svg width="29" height="29" viewBox="0 0 29 29" fill="none" xmlns="http://www.w3.org/2000/svg">
<path d="M2.96525 9.59354C3.30514 9.25375 3.76607 9.06287 4.24668 9.06287C4.72729 9.06287 5.18823 9.25375 5.52812 9.59354L14.5 18.5654L23.4719 9.59354C23.8137 9.26338 24.2716 9.08069 24.7468 9.08482C25.222 9.08895 25.6766 9.27957 26.0127 9.61562C26.3487 9.95167 26.5393 10.4063 26.5435 10.8815C26.5476 11.3567 26.3649 11.8146 26.0347 12.1564L15.7814 22.4097C15.4415 22.7495 14.9806 22.9404 14.5 22.9404C14.0194 22.9404 13.5585 22.7495 13.2186 22.4097L2.96525 12.1564C2.62545 11.8165 2.43457 11.3556 2.43457 10.875C2.43457 10.3944 2.62545 9.93344 2.96525 9.59354Z" fill="#82B5D1"/>
</svg>
