<svg width="29" height="29" viewBox="0 0 29 29" fill="none" xmlns="http://www.w3.org/2000/svg">
<path d="M9.59354 2.96525C9.25375 3.30514 9.06287 3.76607 9.06287 4.24668C9.06287 4.72729 9.25375 5.18823 9.59354 5.52812L18.5654 14.5L9.59354 23.4719C9.26338 23.8137 9.08069 24.2716 9.08482 24.7468C9.08895 25.222 9.27957 25.6766 9.61562 26.0127C9.95167 26.3487 10.4063 26.5393 10.8815 26.5435C11.3567 26.5476 11.8146 26.3649 12.1564 26.0347L22.4097 15.7814C22.7495 15.4415 22.9404 14.9806 22.9404 14.5C22.9404 14.0194 22.7495 13.5585 22.4097 13.2186L12.1564 2.96525C11.8165 2.62545 11.3556 2.43457 10.875 2.43457C10.3944 2.43457 9.93344 2.62545 9.59354 2.96525V2.96525Z" fill="#82B5D1"/>
</svg>
