<svg width="40" height="40" viewBox="0 0 40 40" fill="none" xmlns="http://www.w3.org/2000/svg">
<rect x="0.714286" y="0.714286" width="38.5714" height="38.5714" rx="19.2857" stroke="#82B5D1" stroke-width="1.42857"/>
<path d="M24.8875 15.8176L25.1612 15.1578C25.25 15.1947 25.3478 15.2043 25.4421 15.1856C25.5364 15.1669 25.6231 15.1206 25.6912 15.0526C25.7593 14.9845 25.8057 14.8978 25.8245 14.8033C25.8433 14.7089 25.8337 14.611 25.7969 14.522C25.7601 14.433 25.6977 14.3569 25.6178 14.3034C25.5378 14.25 25.4439 14.2214 25.3478 14.2214L24.8875 15.8176ZM24.8875 15.8176L25.1612 15.1578C25.0723 15.121 24.9964 15.0586 24.9429 14.9785L24.3488 15.375M24.8875 15.8176L24.3488 15.375M11.1484 15.9739L11.1484 15.9737C11.1964 14.9182 11.3769 14.3131 11.5396 13.8908L11.5405 13.8884L11.5405 13.8884C11.7576 13.3304 12.0283 12.913 12.4491 12.4916C12.8698 12.0701 13.2871 11.7985 13.8468 11.5818C14.2711 11.4163 14.878 11.2376 15.9308 11.1897L11.1484 15.9739ZM11.1484 15.9739C11.0999 17.0461 11.0894 17.3748 11.0894 20.051C11.0894 22.7262 11.0991 23.0566 11.1484 24.1282L11.1484 15.9739ZM24.082 11.1897L24.0822 11.1897C25.1374 11.2378 25.7424 11.4183 26.1647 11.581L26.1661 11.5816C26.7254 11.7984 27.1427 12.0705 27.5636 12.4909C27.9859 12.9127 28.256 13.3311 28.4729 13.8884M24.082 11.1897L28.4729 13.8884M24.082 11.1897C23.0101 11.1412 22.6802 11.1307 20.0061 11.1307C17.3328 11.1307 17.0025 11.1404 15.9312 11.1897L24.082 11.1897ZM28.4729 13.8884C28.6383 14.3129 28.8171 14.9199 28.865 15.9734L28.4729 13.8884ZM24.3488 15.375L24.9429 14.9785C24.8895 14.8985 24.861 14.8045 24.861 14.7083M24.3488 15.375L24.861 14.7083M15.9138 10.8161L15.9133 10.8162C14.9156 10.8616 14.2655 11.0174 13.7112 11.2331L13.7105 11.2334C13.1387 11.4553 12.6669 11.7455 12.1843 12.2274C11.7029 12.7082 11.4136 13.1805 11.1914 13.7533L11.1912 13.7538C10.9754 14.3089 10.8197 14.9589 10.7742 15.9569L10.7742 15.9574C10.7257 17.0079 10.7144 17.3361 10.7144 20.0509C10.7144 22.7657 10.7257 23.0938 10.7742 24.1444L10.7742 24.1449C10.8197 25.1429 10.9754 25.7928 11.1912 26.348L11.1913 26.3483C11.4136 26.921 11.7031 27.3939 12.1842 27.8743L11.6796 28.3798L12.1842 27.8743C12.6664 28.3557 13.1383 28.6456 13.7107 28.8685L15.9138 10.8161ZM15.9138 10.8161C16.9646 10.7676 17.2929 10.7563 20.0069 10.7563C22.7204 10.7563 23.0489 10.7684 24.0997 10.8162L24.1002 10.8162M15.9138 10.8161L24.1002 10.8162M28.4733 26.2124L28.4729 26.2135C28.2557 26.7715 27.985 27.1891 27.5637 27.6101C27.1427 28.0308 26.7249 28.3019 26.1671 28.5192M28.4733 26.2124L15.9308 28.9114M28.4733 26.2124C28.6371 25.7895 28.8169 25.1832 28.865 24.1285L28.4733 26.2124ZM26.1671 28.5192L25.9084 27.855L26.1674 28.519C26.1673 28.5191 26.1672 28.5191 26.1671 28.5192ZM26.1671 28.5192C25.7427 28.6847 25.1357 28.8635 24.0825 28.9114C23.011 28.9607 22.6809 28.9704 20.0061 28.9704C17.3312 28.9704 17.0021 28.9607 15.9308 28.9114M15.9308 28.9114C14.8774 28.8634 14.2706 28.6845 13.8463 28.5192C13.8462 28.5191 13.8462 28.5191 13.8461 28.5191L14.1055 27.8536L15.9308 28.9114ZM24.0984 29.2856L24.0988 29.2856C25.0965 29.2402 25.7462 29.0844 26.3011 28.8686C26.8735 28.6456 27.3458 28.3558 27.8278 27.8744C28.3088 27.394 28.5978 26.9214 28.821 26.348L24.0984 29.2856ZM24.0984 29.2856C23.0481 29.3342 22.7201 29.3455 20.0061 29.3455C17.2926 29.3455 16.9646 29.3334 15.9132 29.2856M24.0984 29.2856L15.9132 29.2856M29.2379 24.1454L29.2379 24.1449C29.2857 23.0932 29.297 22.7656 29.297 20.0509C29.297 17.3362 29.2857 17.0077 29.2379 15.9569C29.1925 14.9589 29.0368 14.3086 28.8211 13.7541L29.2379 24.1454ZM29.2379 24.1454C29.1933 25.1424 29.037 25.7923 28.8211 26.3477L29.2379 24.1454ZM24.1002 10.8162C25.096 10.8608 25.7458 11.0171 26.302 11.2332L24.1002 10.8162ZM24.861 14.7083C24.8611 14.5791 24.9125 14.4552 25.0038 14.364C25.095 14.2727 25.2187 14.2215 25.3476 14.2214L24.861 14.7083ZM15.9132 29.2856C14.9161 29.2402 14.2671 29.0845 13.7111 28.8686L15.9132 29.2856ZM20.0061 16C17.7692 16 15.957 17.8143 15.957 20.0509C15.957 22.2875 17.7692 24.1017 20.0061 24.1017C22.2427 24.1017 24.056 22.2877 24.056 20.0509C24.056 17.8141 22.2427 16 20.0061 16ZM20.0061 24.476C17.5631 24.476 15.5824 22.4951 15.5824 20.0509C15.5824 17.6067 17.5631 15.6257 20.0061 15.6257C22.4491 15.6257 24.4298 17.6067 24.4298 20.0509C24.4298 22.4951 22.4491 24.476 20.0061 24.476ZM11.1484 24.1286C11.1963 25.1812 11.3747 25.7881 11.5401 26.2125L11.1484 24.1286ZM27.827 12.2266C28.3084 12.7088 28.5981 13.1813 28.821 13.7539L26.3022 11.2333C26.8739 11.4556 27.3465 11.7451 27.827 12.2266Z" stroke="#82B5D1" stroke-width="1.42857"/>
</svg>
