<svg width="33" height="33" viewBox="0 0 33 33" fill="none" xmlns="http://www.w3.org/2000/svg">
<path d="M15.5669 23.46L16.1349 22.8946L15.5669 23.46ZM8.83554 16.6969L8.26749 17.2623L8.83554 16.6969ZM18.3742 23.46L18.9423 24.0253L18.3742 23.46ZM15.9944 9.50434L16.5624 8.93895V8.93895L15.9944 9.50434ZM25.1056 16.6969L24.5375 16.1315V16.1315L25.1056 16.6969ZM17.9468 9.50434L18.5148 10.0697V10.0697L17.9468 9.50434ZM16.9706 10.4851L16.4025 11.0505C16.5529 11.2017 16.7573 11.2866 16.9706 11.2866C17.1838 11.2866 17.3882 11.2017 17.5386 11.0505L16.9706 10.4851ZM16.1349 22.8946L9.4036 16.1315L8.26749 17.2623L14.9988 24.0253L16.1349 22.8946ZM17.8062 22.8946C17.3442 23.3587 16.5969 23.3587 16.1349 22.8946L14.9988 24.0253C16.0873 25.119 17.8538 25.119 18.9423 24.0253L17.8062 22.8946ZM9.4036 10.0697C11.0672 8.39833 13.7627 8.39833 15.4263 10.0697L16.5624 8.93895C14.2723 6.638 10.5576 6.638 8.26749 8.93895L9.4036 10.0697ZM8.26749 8.93895C5.97942 11.2378 5.97942 14.9634 8.26749 17.2623L9.4036 16.1315C7.73797 14.458 7.73797 11.7432 9.4036 10.0697L8.26749 8.93895ZM24.5375 16.1315L17.8062 22.8946L18.9423 24.0253L25.6736 17.2623L24.5375 16.1315ZM24.5375 10.0697C26.2031 11.7432 26.2031 14.458 24.5375 16.1315L25.6736 17.2623C27.9617 14.9634 27.9617 11.2378 25.6736 8.93895L24.5375 10.0697ZM18.5148 10.0697C20.1784 8.39833 22.874 8.39833 24.5375 10.0697L25.6736 8.93895C23.3835 6.638 19.6688 6.638 17.3787 8.93895L18.5148 10.0697ZM17.5386 11.0505L18.5148 10.0697L17.3787 8.93895L16.4025 9.91975L17.5386 11.0505ZM15.4263 10.0697L16.4025 11.0505L17.5386 9.91975L16.5624 8.93895L15.4263 10.0697Z" fill="#6891A7"/>
</svg>
