<svg width="35" height="35" viewBox="0 0 35 35" fill="none" xmlns="http://www.w3.org/2000/svg">
<path d="M27 14.8182H9C8.16213 14.8182 7.7432 14.8182 7.40641 14.7039C6.8032 14.4992 6.32892 14.0393 6.11785 13.4544C6 13.1278 6 12.7216 6 11.9091C6 11.0966 6 10.6904 6.11785 10.3638C6.32892 9.77886 6.8032 9.31895 7.40641 9.11427C7.7432 9 8.16213 9 9 9H27C27.8379 9 28.2568 9 28.5936 9.11427C29.1968 9.31895 29.6711 9.77886 29.8822 10.3638C30 10.6904 30 11.0966 30 11.9091C30 12.7216 30 13.1278 29.8822 13.4544C29.6711 14.0393 29.1968 14.4992 28.5936 14.7039C28.2568 14.8182 27.8379 14.8182 27 14.8182Z" stroke="#82B5D1" stroke-width="2"/>
<path d="M27 25H9C8.16213 25 7.7432 25 7.40641 24.8857C6.8032 24.681 6.32892 24.2211 6.11785 23.6362C6 23.3096 6 22.9034 6 22.0909C6 21.2784 6 20.8722 6.11785 20.5456C6.32892 19.9607 6.8032 19.5008 7.40641 19.2961C7.7432 19.1818 8.16213 19.1818 9 19.1818H27C27.8379 19.1818 28.2568 19.1818 28.5936 19.2961C29.1968 19.5008 29.6711 19.9607 29.8822 20.5456C30 20.8722 30 21.2784 30 22.0909C30 22.9034 30 23.3096 29.8822 23.6362C29.6711 24.2211 29.1968 24.681 28.5936 24.8857C28.2568 25 27.8379 25 27 25Z" stroke="#82B5D1" stroke-width="2"/>
</svg>
